<svg width="25" height="25" viewBox="0 0 25 25" fill="none" xmlns="http://www.w3.org/2000/svg">
<path fill-rule="evenodd" clip-rule="evenodd" d="M0 12.5C0 5.59644 5.59644 0 12.5 0C19.4036 0 25 5.59644 25 12.5C25 19.4036 19.4036 25 12.5 25C5.59644 25 0 19.4036 0 12.5Z" fill="#1769FF"/>
<path fill-rule="evenodd" clip-rule="evenodd" d="M14.3533 9.7239H17.8842V8.7123H14.3533V9.7239V9.7239ZM15.1898 11.9312C14.9648 12.1601 14.8229 12.4702 14.7649 12.8616H17.5111C17.4821 12.4439 17.3394 12.1284 17.0869 11.9111C16.8314 11.6953 16.517 11.5878 16.1407 11.5878C15.7331 11.5878 15.4148 11.7022 15.1898 11.9312V11.9312V11.9312ZM17.5729 10.5731C17.9986 10.7602 18.349 11.0572 18.625 11.4625C18.8766 11.8198 19.0381 12.2343 19.1118 12.7053C19.1549 12.9807 19.1722 13.3797 19.1651 13.8987H14.7256C14.7523 14.5012 14.9624 14.9242 15.3637 15.1663C15.6068 15.3171 15.8992 15.3929 16.2425 15.3929C16.6039 15.3929 16.8995 15.3008 17.1261 15.1176C17.2507 15.0178 17.3605 14.8801 17.4545 14.7038H19.0812C19.0381 15.0595 18.8405 15.4223 18.4909 15.7904C17.9453 16.3743 17.1809 16.6667 16.1986 16.6667C15.3873 16.6667 14.6715 16.4207 14.053 15.9273C13.4313 15.4346 13.1224 14.6319 13.1224 13.5213C13.1224 12.4795 13.4023 11.6806 13.9613 11.1245C14.5218 10.57 15.2469 10.2908 16.1398 10.2908C16.6706 10.2908 17.148 10.3851 17.5729 10.5731V10.5731V10.5731ZM7.47571 12.8832V15.051H9.47634C9.83382 15.051 10.1129 15.0031 10.3112 14.908C10.6726 14.7301 10.853 14.3929 10.853 13.8933C10.853 13.4695 10.6789 13.1794 10.3285 13.0209C10.1325 12.9327 9.85734 12.8863 9.50456 12.8832H7.47571V12.8832ZM7.47571 9.74478V11.5383H9.47948C9.83617 11.5383 10.127 11.471 10.3512 11.3364C10.5739 11.2019 10.686 10.9636 10.686 10.6234C10.686 10.2436 10.5386 9.99381 10.2438 9.87161C9.98826 9.78731 9.6637 9.74478 9.26938 9.74478H7.47571V9.74478ZM11.9505 9.19953C12.2022 9.54524 12.3284 9.95823 12.3284 10.4401C12.3284 10.9358 12.2022 11.3356 11.9474 11.6373C11.8047 11.8059 11.5954 11.9606 11.3187 12.0998C11.7388 12.2513 12.0556 12.4903 12.2711 12.8175C12.4844 13.1438 12.5918 13.5414 12.5918 14.0085C12.5918 14.4903 12.4695 14.9227 12.2241 15.3047C12.0689 15.5576 11.8745 15.7711 11.6409 15.9443C11.3782 16.1431 11.0686 16.2784 10.7103 16.3527C10.352 16.4261 9.96477 16.4617 9.54615 16.4617H5.83337V8.33333H9.81504C10.8201 8.34802 11.5311 8.6365 11.9505 9.19953V9.19953V9.19953Z" fill="white"/>
</svg>
